0
SECTION
2
HEADER
9
$INSUNITS
70
4
0
ENDSEC
0
SECTION
2
TABLES
0
TABLE
2
LTYPE
0
LTYPE
72
65
70
64
2
CONTINUOUS
3
______
73
0
40
0
0
ENDTAB
0
TABLE
2
LAYER
0
ENDTAB
0
ENDSEC
0
SECTION
2
ENTITIES
0
LINE
8
0
10
143.1
20
-156.9
11
156.9
21
-156.9
0
LINE
8
0
10
156.9
20
-156.9
11
156.9
21
-143.1
0
LINE
8
0
10
156.9
20
-143.1
11
143.1
21
-143.1
0
LINE
8
0
10
143.1
20
-143.1
11
143.1
21
-156.9
0
LINE
8
0
10
143.1
20
-137.9
11
156.9
21
-137.9
0
LINE
8
0
10
156.9
20
-137.9
11
156.9
21
-124.1
0
LINE
8
0
10
156.9
20
-124.1
11
143.1
21
-124.1
0
LINE
8
0
10
143.1
20
-124.1
11
143.1
21
-137.9
0
LINE
8
0
10
143.1
20
-118.9
11
156.9
21
-118.9
0
LINE
8
0
10
156.9
20
-118.9
11
156.9
21
-105.1
0
LINE
8
0
10
156.9
20
-105.1
11
143.1
21
-105.1
0
LINE
8
0
10
143.1
20
-105.1
11
143.1
21
-118.9
0
LINE
8
0
10
143.1
20
-99.9
11
156.9
21
-99.9
0
LINE
8
0
10
156.9
20
-99.9
11
156.9
21
-86.1
0
LINE
8
0
10
156.9
20
-86.1
11
143.1
21
-86.1
0
LINE
8
0
10
143.1
20
-86.1
11
143.1
21
-99.9
0
LINE
8
0
10
162.1
20
-156.9
11
175.9
21
-156.9
0
LINE
8
0
10
175.9
20
-156.9
11
175.9
21
-143.1
0
LINE
8
0
10
175.9
20
-143.1
11
162.1
21
-143.1
0
LINE
8
0
10
162.1
20
-143.1
11
162.1
21
-156.9
0
LINE
8
0
10
162.1
20
-137.9
11
175.9
21
-137.9
0
LINE
8
0
10
175.9
20
-137.9
11
175.9
21
-124.1
0
LINE
8
0
10
175.9
20
-124.1
11
162.1
21
-124.1
0
LINE
8
0
10
162.1
20
-124.1
11
162.1
21
-137.9
0
LINE
8
0
10
162.1
20
-118.9
11
175.9
21
-118.9
0
LINE
8
0
10
175.9
20
-118.9
11
175.9
21
-105.1
0
LINE
8
0
10
175.9
20
-105.1
11
162.1
21
-105.1
0
LINE
8
0
10
162.1
20
-105.1
11
162.1
21
-118.9
0
LINE
8
0
10
162.1
20
-99.9
11
175.9
21
-99.9
0
LINE
8
0
10
175.9
20
-99.9
11
175.9
21
-86.1
0
LINE
8
0
10
175.9
20
-86.1
11
162.1
21
-86.1
0
LINE
8
0
10
162.1
20
-86.1
11
162.1
21
-99.9
0
LINE
8
0
10
181.1
20
-156.9
11
194.9
21
-156.9
0
LINE
8
0
10
194.9
20
-156.9
11
194.9
21
-143.1
0
LINE
8
0
10
194.9
20
-143.1
11
181.1
21
-143.1
0
LINE
8
0
10
181.1
20
-143.1
11
181.1
21
-156.9
0
LINE
8
0
10
181.1
20
-137.9
11
194.9
21
-137.9
0
LINE
8
0
10
194.9
20
-137.9
11
194.9
21
-124.1
0
LINE
8
0
10
194.9
20
-124.1
11
181.1
21
-124.1
0
LINE
8
0
10
181.1
20
-124.1
11
181.1
21
-137.9
0
LINE
8
0
10
181.1
20
-118.9
11
194.9
21
-118.9
0
LINE
8
0
10
194.9
20
-118.9
11
194.9
21
-105.1
0
LINE
8
0
10
194.9
20
-105.1
11
181.1
21
-105.1
0
LINE
8
0
10
181.1
20
-105.1
11
181.1
21
-118.9
0
LINE
8
0
10
181.1
20
-99.9
11
194.9
21
-99.9
0
LINE
8
0
10
194.9
20
-99.9
11
194.9
21
-86.1
0
LINE
8
0
10
194.9
20
-86.1
11
181.1
21
-86.1
0
LINE
8
0
10
181.1
20
-86.1
11
181.1
21
-99.9
0
LINE
8
0
10
200.1
20
-156.9
11
213.9
21
-156.9
0
LINE
8
0
10
213.9
20
-156.9
11
213.9
21
-143.1
0
LINE
8
0
10
213.9
20
-143.1
11
200.1
21
-143.1
0
LINE
8
0
10
200.1
20
-143.1
11
200.1
21
-156.9
0
LINE
8
0
10
200.1
20
-137.9
11
213.9
21
-137.9
0
LINE
8
0
10
213.9
20
-137.9
11
213.9
21
-124.1
0
LINE
8
0
10
213.9
20
-124.1
11
200.1
21
-124.1
0
LINE
8
0
10
200.1
20
-124.1
11
200.1
21
-137.9
0
LINE
8
0
10
200.1
20
-118.9
11
213.9
21
-118.9
0
LINE
8
0
10
213.9
20
-118.9
11
213.9
21
-105.1
0
LINE
8
0
10
213.9
20
-105.1
11
200.1
21
-105.1
0
LINE
8
0
10
200.1
20
-105.1
11
200.1
21
-118.9
0
LINE
8
0
10
200.1
20
-99.9
11
213.9
21
-99.9
0
LINE
8
0
10
213.9
20
-99.9
11
213.9
21
-86.1
0
LINE
8
0
10
213.9
20
-86.1
11
200.1
21
-86.1
0
LINE
8
0
10
200.1
20
-86.1
11
200.1
21
-99.9
0
LINE
8
0
10
219.1
20
-156.9
11
232.9
21
-156.9
0
LINE
8
0
10
232.9
20
-156.9
11
232.9
21
-143.1
0
LINE
8
0
10
232.9
20
-143.1
11
219.1
21
-143.1
0
LINE
8
0
10
219.1
20
-143.1
11
219.1
21
-156.9
0
LINE
8
0
10
219.1
20
-137.9
11
232.9
21
-137.9
0
LINE
8
0
10
232.9
20
-137.9
11
232.9
21
-124.1
0
LINE
8
0
10
232.9
20
-124.1
11
219.1
21
-124.1
0
LINE
8
0
10
219.1
20
-124.1
11
219.1
21
-137.9
0
LINE
8
0
10
219.1
20
-118.9
11
232.9
21
-118.9
0
LINE
8
0
10
232.9
20
-118.9
11
232.9
21
-105.1
0
LINE
8
0
10
232.9
20
-105.1
11
219.1
21
-105.1
0
LINE
8
0
10
219.1
20
-105.1
11
219.1
21
-118.9
0
LINE
8
0
10
219.1
20
-99.9
11
232.9
21
-99.9
0
LINE
8
0
10
232.9
20
-99.9
11
232.9
21
-86.1
0
LINE
8
0
10
232.9
20
-86.1
11
219.1
21
-86.1
0
LINE
8
0
10
219.1
20
-86.1
11
219.1
21
-99.9
0
LINE
8
0
10
238.1
20
-156.9
11
251.9
21
-156.9
0
LINE
8
0
10
251.9
20
-156.9
11
251.9
21
-143.1
0
LINE
8
0
10
251.9
20
-143.1
11
238.1
21
-143.1
0
LINE
8
0
10
238.1
20
-143.1
11
238.1
21
-156.9
0
LINE
8
0
10
238.1
20
-137.9
11
251.9
21
-137.9
0
LINE
8
0
10
251.9
20
-137.9
11
251.9
21
-124.1
0
LINE
8
0
10
251.9
20
-124.1
11
238.1
21
-124.1
0
LINE
8
0
10
238.1
20
-124.1
11
238.1
21
-137.9
0
LINE
8
0
10
238.1
20
-118.9
11
251.9
21
-118.9
0
LINE
8
0
10
251.9
20
-118.9
11
251.9
21
-105.1
0
LINE
8
0
10
251.9
20
-105.1
11
238.1
21
-105.1
0
LINE
8
0
10
238.1
20
-105.1
11
238.1
21
-118.9
0
LINE
8
0
10
238.1
20
-99.9
11
251.9
21
-99.9
0
LINE
8
0
10
251.9
20
-99.9
11
251.9
21
-86.1
0
LINE
8
0
10
251.9
20
-86.1
11
238.1
21
-86.1
0
LINE
8
0
10
238.1
20
-86.1
11
238.1
21
-99.9
0
LINE
8
0
10
178.25
20
-175.9
11
192.05
21
-175.9
0
LINE
8
0
10
192.05
20
-175.9
11
192.05
21
-162.1
0
LINE
8
0
10
192.05
20
-162.1
11
178.25
21
-162.1
0
LINE
8
0
10
178.25
20
-162.1
11
178.25
21
-175.9
0
LINE
8
0
10
197.25
20
-175.9
11
211.05
21
-175.9
0
LINE
8
0
10
211.05
20
-175.9
11
211.05
21
-162.1
0
LINE
8
0
10
211.05
20
-162.1
11
197.25
21
-162.1
0
LINE
8
0
10
197.25
20
-162.1
11
197.25
21
-175.9
0
LINE
8
0
10
216.25
20
-175.9
11
230.05
21
-175.9
0
LINE
8
0
10
230.05
20
-175.9
11
230.05
21
-162.1
0
LINE
8
0
10
230.05
20
-162.1
11
216.25
21
-162.1
0
LINE
8
0
10
216.25
20
-162.1
11
216.25
21
-175.9
0
LINE
8
0
10
235.7337542
20
-176.4973867
11
249.2321911
21
-179.366568
0
LINE
8
0
10
249.2321911
20
-179.366568
11
252.1013724
21
-165.8681311
0
LINE
8
0
10
252.1013724
20
-165.8681311
11
238.6029355
21
-162.9989498
0
LINE
8
0
10
238.6029355
20
-162.9989498
11
235.7337542
21
-176.4973867
0
LINE
8
0
10
255.2979022
20
-178.3483131
11
268.2656604
21
-183.0681911
0
LINE
8
0
10
268.2656604
20
-183.0681911
11
272.9855384
21
-170.1004329
0
LINE
8
0
10
272.9855384
20
-170.1004329
11
260.0177802
21
-165.3805549
0
LINE
8
0
10
260.0177802
20
-165.3805549
11
255.2979022
21
-178.3483131
0
ENDSEC
0
EOF